<svg xmlns="http://www.w3.org/2000/svg" xmlns:xlink="http://www.w3.org/1999/xlink" width="715" height="492" viewBox="0 0 715 492">
  <defs>
    <linearGradient id="linear-gradient" x1="0.5" x2="0.5" y2="1" gradientUnits="objectBoundingBox">
      <stop offset="0" stop-color="#566ff4"/>
      <stop offset="1" stop-color="#7a55f5"/>
    </linearGradient>
    <filter id="Path_1703" x="264.017" y="170.204" width="193.368" height="157.214" filterUnits="userSpaceOnUse">
      <feOffset dx="3" dy="3" input="SourceAlpha"/>
      <feGaussianBlur stdDeviation="4" result="blur"/>
      <feFlood flood-opacity="0.243"/>
      <feComposite operator="in" in2="blur"/>
      <feComposite in="SourceGraphic"/>
    </filter>
  </defs>
  <g id="Group_3752" data-name="Group 3752" transform="translate(-852 -1808.018)">
    <path id="Path_1704" data-name="Path 1704" d="M0,0H715V492H0Z" transform="translate(852 1808.018)" fill="url(#linear-gradient)"/>
    <g transform="matrix(1, 0, 0, 1, 852, 1808.02)" filter="url(#Path_1703)">
      <path id="Path_1703-2" data-name="Path 1703" d="M92.819-1148.442l-.093-.1,45.287-45.287a23.264,23.264,0,0,0,6.858-16.56,23.262,23.262,0,0,0-6.858-16.557L86.956-1278h24.213a12.5,12.5,0,0,1,8.831,3.656l40.773,41.153c13.406,14.625,9.516,37.478-.658,46.505l-38.095,38.243c-2.441,2.438-8.521,3.656-14.6,3.656S95.256-1146,92.819-1148.442Zm-37.152-2.338L1.694-1204.7A5.758,5.758,0,0,1,0-1208.775v-62.842a5.768,5.768,0,0,1,5.77-5.767H68.612a5.766,5.766,0,0,1,4.08,1.691l53.977,53.98a.046.046,0,0,1,.014.011,18.215,18.215,0,0,1,5.329,12.928,18.219,18.219,0,0,1-5.329,12.928l-.014.013-45.056,45.056A18.221,18.221,0,0,1,68.64-1145.4,18.228,18.228,0,0,1,55.667-1150.781Z" transform="translate(273.02 1457.2)" fill="#afb7f4"/>
    </g>
  </g>
</svg>
