<svg xmlns="http://www.w3.org/2000/svg" width="444.666" height="825.783" viewBox="0 0 444.666 825.783">
  <g id="Group_3737" data-name="Group 3737" transform="translate(98.984 -60.364)">
    <g id="Group_3551" data-name="Group 3551" transform="translate(-98.984 55.122)">
      <g id="Ellipse_14" data-name="Ellipse 14" transform="matrix(0.951, 0.309, -0.309, 0.951, 30.391, 756.901)" fill="none" stroke="#fae0d2" stroke-width="3">
        <ellipse cx="29.413" cy="29.413" rx="29.413" ry="29.413" stroke="none"/>
        <ellipse cx="29.413" cy="29.413" rx="27.913" ry="27.913" fill="none"/>
      </g>
      <g id="Ellipse_15" data-name="Ellipse 15" transform="translate(0 124.865)" fill="none" stroke="#fae0d2" stroke-width="3">
        <ellipse cx="43.477" cy="43.477" rx="43.477" ry="43.477" stroke="none"/>
        <ellipse cx="43.477" cy="43.477" rx="41.977" ry="41.977" fill="none"/>
      </g>
      <g id="Polygon_3" data-name="Polygon 3" transform="translate(360.002 2.342)" fill="none">
        <path d="M25.536,8.875a6,6,0,0,1,10.363,0L56.166,43.587a6,6,0,0,1-5.182,9.025H10.451a6,6,0,0,1-5.182-9.025Z" stroke="none"/>
        <path d="M 30.71777534484863 5.899932861328125 C 28.70596313476562 5.899932861328125 26.69414901733398 6.891525268554688 25.5362663269043 8.874710083007812 L 5.269386291503906 43.58713912963867 C 2.934024810791016 47.58706665039062 5.819114685058594 52.61236953735352 10.45089721679688 52.61236953735352 L 50.98465728759766 52.61236953735352 C 55.61642456054688 52.61236953735352 58.50152587890625 47.58706665039062 56.16615676879883 43.58713912963867 L 35.89928436279297 8.874710083007812 C 34.74140167236328 6.891525268554688 32.72958755493164 5.899932861328125 30.71777534484863 5.899932861328125 M 30.71777534484863 2.899929046630859 C 33.95319366455078 2.899929046630859 36.85871505737305 4.568027496337891 38.49003601074219 7.362087249755859 L 58.75690460205078 42.07452774047852 C 59.58808517456055 43.49813079833984 60.01545715332031 45.10681915283203 59.99282455444336 46.72669982910156 C 59.97155380249023 48.24961090087891 59.55555725097656 49.75959777832031 58.7898063659668 51.09339904785156 C 58.02404403686523 52.42720794677734 56.92979431152344 53.54780960083008 55.6253547668457 54.33403778076172 C 54.23786544799805 55.17033004760742 52.63313674926758 55.61236953735352 50.98465728759766 55.61236953735352 L 10.45089721679688 55.61236953735352 C 8.802413940429688 55.61236953735352 7.197685241699219 55.17033004760742 5.810195922851562 54.33403778076172 C 4.505756378173828 53.54780960083008 3.411506652832031 52.42721939086914 2.645744323730469 51.09340667724609 C 1.879993438720703 49.75959777832031 1.463985443115234 48.24961853027344 1.442714691162109 46.72670745849609 C 1.420085906982422 45.10682678222656 1.847454071044922 43.49813079833984 2.678634643554688 42.07452774047852 L 22.94551467895508 7.362098693847656 C 24.57681655883789 4.568027496337891 27.48233413696289 2.899929046630859 30.71777534484863 2.899929046630859 Z" stroke="none" fill="#d2defd"/>
      </g>
      <g id="Rectangle_2381" data-name="Rectangle 2381" transform="translate(397.21 85.908)" fill="none" stroke="#ffd3f3" stroke-width="3">
        <rect width="44.456" height="43.956" rx="6" stroke="none"/>
        <rect x="-1.5" y="-1.5" width="47.456" height="46.956" rx="7.5" fill="none"/>
      </g>
    </g>
  </g>
</svg>
