<svg xmlns="http://www.w3.org/2000/svg" width="295" height="295" viewBox="0 0 295 295">
  <g id="android-chrome-512x512" transform="translate(-89 -4803.121)">
    <rect id="android-chrome-maskable-512x512" width="295" height="295" rx="90" transform="translate(89 4803.121)" fill="#fff"/>
    <path id="Path_1877" data-name="Path 1877" d="M114.043-1118.817l-.114-.12,55.642-55.642A28.583,28.583,0,0,0,178-1194.926a28.583,28.583,0,0,0-8.426-20.343L106.839-1278h29.75a15.351,15.351,0,0,1,10.85,4.492l50.1,50.562c16.472,17.969,11.692,46.048-.808,57.14l-46.806,46.988c-3,2.994-10.469,4.492-17.94,4.492S117.038-1115.823,114.043-1118.817ZM68.4-1121.691,2.081-1187.933A7.076,7.076,0,0,1,0-1192.946v-77.212a7.087,7.087,0,0,1,7.09-7.086H84.3a7.083,7.083,0,0,1,5.013,2.078l66.319,66.323a.045.045,0,0,1,.017.013,22.38,22.38,0,0,1,6.548,15.884,22.387,22.387,0,0,1-6.548,15.884l-.017.016-55.359,55.36a22.389,22.389,0,0,1-15.939,6.6A22.4,22.4,0,0,1,68.4-1121.691Z" transform="translate(132.573 6146.784)" fill="#566ff4"/>
  </g>
</svg>
