<svg xmlns="http://www.w3.org/2000/svg" width="16.166" height="14.404" viewBox="0 0 16.166 14.404">
  <path id="Path_1694" data-name="Path 1694" d="M18653.09,9668v-.146a2.115,2.115,0,0,1,4.221,0h0c0,.047.01.094.01.141v0a2.115,2.115,0,0,1-4.23,0Zm-4.09-.146h0Zm8.957-8.029v0a1.134,1.134,0,0,1,.01-.141,2.115,2.115,0,0,1,4.221,0h0c0,.047,0,.094,0,.141v0a2.117,2.117,0,0,1-4.234,0Zm-8.957-.145h0Z" transform="translate(-18649 -9656.704)" fill="rgba(0,0,0,0)" stroke="#0a1b48" stroke-linecap="round" stroke-width="2"/>
</svg>
